<?xml version="1.0" encoding="UTF-8" standalone="no"?>
<!-- Created with Inkscape (http://www.inkscape.org/) -->

<svg
   xmlns:dc="http://purl.org/dc/elements/1.1/"
   xmlns:cc="http://creativecommons.org/ns#"
   xmlns:rdf="http://www.w3.org/1999/02/22-rdf-syntax-ns#"
   xmlns:svg="http://www.w3.org/2000/svg"
   xmlns="http://www.w3.org/2000/svg"
   xmlns:sodipodi="http://sodipodi.sourceforge.net/DTD/sodipodi-0.dtd"
   xmlns:inkscape="http://www.inkscape.org/namespaces/inkscape"
   width="283.16574"
   height="200"
   id="svg6800"
   sodipodi:version="0.32"
   inkscape:version="0.47 r22583"
   version="1.0"
   sodipodi:docname="jp_draws_US_Flag.svg"
   inkscape:output_extension="org.inkscape.output.svg.inkscape"
   sodipodi:modified="true"
   inkscape:export-filename="/home/user/rails/pet/trunk/public/images/US-Flag.png"
   inkscape:export-xdpi="5.7199998"
   inkscape:export-ydpi="5.7199998">
  <defs
     id="defs6802">
    <inkscape:perspective
       sodipodi:type="inkscape:persp3d"
       inkscape:vp_x="0 : 100 : 1"
       inkscape:vp_y="0 : 1000 : 0"
       inkscape:vp_z="380 : 100 : 1"
       inkscape:persp3d-origin="190 : 66.666667 : 1"
       id="perspective75" />
  </defs>
  <sodipodi:namedview
     id="base"
     pagecolor="#ffffff"
     bordercolor="#666666"
     borderopacity="1.0"
     gridtolerance="10000"
     guidetolerance="10"
     objecttolerance="10"
     inkscape:pageopacity="0.0"
     inkscape:pageshadow="2"
     inkscape:zoom="2.685"
     inkscape:cx="137.31774"
     inkscape:cy="100.50001"
     inkscape:document-units="px"
     inkscape:current-layer="layer6"
     showborder="false"
     inkscape:showpageshadow="false"
     height="200px"
     width="380px"
     borderlayer="false"
     inkscape:window-width="1280"
     inkscape:window-height="725"
     inkscape:window-x="0"
     inkscape:window-y="24"
     showgrid="false"
     inkscape:window-maximized="1" />
  <metadata
     id="metadata6805">
    <rdf:RDF>
      <cc:Work
         rdf:about="">
        <dc:format>image/svg+xml</dc:format>
        <dc:type
           rdf:resource="http://purl.org/dc/dcmitype/StillImage" />
        <dc:title></dc:title>
      </cc:Work>
    </rdf:RDF>
  </metadata>
  <g
     inkscape:label="bg_border"
     inkscape:groupmode="layer"
     id="layer1"
     transform="translate(0.5,-0.5)">
    <rect
       style="fill:none;stroke:#000000;stroke-width:0.86334968;stroke-linecap:butt;stroke-linejoin:miter;stroke-miterlimit:4;stroke-opacity:1;stroke-dasharray:none;stroke-dashoffset:0"
       id="rect8764"
       width="282.3024"
       height="199.13666"
       x="-0.068325162"
       y="0.93167484" />
  </g>
  <g
     inkscape:groupmode="layer"
     id="layer4"
     inkscape:label="stripes"
     transform="translate(0.5,-0.5)">
    <rect
       style="fill:#bf0a30;fill-opacity:1;fill-rule:evenodd;stroke:none"
       id="rect8767"
       width="282.3024"
       height="16.010986"
       x="-0.068325162"
       y="184.05734" />
    <rect
       style="fill:#ffffff;fill-opacity:1;fill-rule:evenodd;stroke:none"
       id="rect8769"
       width="282.3024"
       height="16.010986"
       x="-0.068325162"
       y="168.04636" />
    <rect
       style="fill:#bf0a30;fill-opacity:1;fill-rule:evenodd;stroke:none"
       id="rect8771"
       width="282.3024"
       height="16.010986"
       x="-0.068325162"
       y="152.03537" />
    <rect
       style="fill:#ffffff;fill-opacity:1;fill-rule:evenodd;stroke:none"
       id="rect8773"
       width="282.3024"
       height="16.010986"
       x="-0.068325162"
       y="136.02438" />
    <rect
       style="fill:#bf0a30;fill-opacity:1;fill-rule:evenodd;stroke:none"
       id="rect8775"
       width="282.3024"
       height="15.010301"
       x="-0.068325162"
       y="121.01408" />
    <rect
       style="fill:#ffffff;fill-opacity:1;fill-rule:evenodd;stroke:none"
       id="rect8777"
       width="282.3024"
       height="15.010301"
       x="-0.068325162"
       y="106.00378" />
    <rect
       style="fill:#bf0a30;fill-opacity:1;fill-rule:evenodd;stroke:none"
       id="rect8779"
       width="282.3024"
       height="15.010301"
       x="-0.068325162"
       y="90.993477" />
    <rect
       style="fill:#ffffff;fill-opacity:1;fill-rule:evenodd;stroke:none"
       id="rect8781"
       width="282.3024"
       height="15.010301"
       x="-0.068325162"
       y="75.983177" />
    <rect
       style="fill:#bf0a30;fill-opacity:1;fill-rule:evenodd;stroke:none"
       id="rect8783"
       width="282.3024"
       height="15.010301"
       x="-0.068325162"
       y="60.972878" />
    <rect
       style="fill:#ffffff;fill-opacity:1;fill-rule:evenodd;stroke:none"
       id="rect8785"
       width="282.3024"
       height="15.010301"
       x="-0.068325162"
       y="45.962574" />
    <rect
       style="fill:#bf0a30;fill-opacity:1;fill-rule:evenodd;stroke:none"
       id="rect8787"
       width="282.3024"
       height="15.010301"
       x="-0.068325162"
       y="30.952276" />
    <rect
       style="fill:#ffffff;fill-opacity:1;fill-rule:evenodd;stroke:none"
       id="rect8791"
       width="282.3024"
       height="15.010301"
       x="-0.068325162"
       y="15.941975" />
    <rect
       style="fill:#bf0a30;fill-opacity:1;fill-rule:evenodd;stroke:none"
       id="rect8793"
       width="282.3024"
       height="15.010301"
       x="-0.068325162"
       y="0.93167484" />
  </g>
  <g
     inkscape:groupmode="layer"
     id="layer5"
     inkscape:label="field"
     transform="translate(0.5,-0.5)" />
  <g
     inkscape:groupmode="layer"
     id="layer6"
     inkscape:label="stars"
     transform="translate(0.5,-0.5)">
    <g
       id="g2934">
      <rect
         y="1"
         x="0"
         height="105"
         width="152"
         id="rect8796"
         style="fill:#002868;fill-opacity:1;fill-rule:evenodd;stroke:none" />
      <g
         id="g2881">
        <path
           sodipodi:type="star"
           style="fill:#ffffff;fill-opacity:1;fill-rule:evenodd;stroke:none"
           id="path8825"
           sodipodi:sides="5"
           sodipodi:cx="106.33333"
           sodipodi:cy="148"
           sodipodi:r1="6.1463628"
           sodipodi:r2="2.810354"
           sodipodi:arg1="-2.9229237"
           sodipodi:arg2="-2.2946052"
           inkscape:flatsided="false"
           inkscape:rounded="0"
           inkscape:randomized="0"
           d="m 100.33333,146.66667 4.13886,-0.77244 1.27511,-4.01259 2.01361,3.69759 4.21023,-0.0273 -2.89438,3.05767 1.32696,3.99575 -3.80244,-1.80785 -3.39013,2.49677 0.54435,-4.17499 -3.42217,-2.45266 z"
           transform="matrix(1.0486689,0.08995095,-0.08593013,1.0977379,-86.263355,-76.410922)" />
        <path
           sodipodi:type="star"
           style="fill:#ffffff;fill-opacity:1;fill-rule:evenodd;stroke:none"
           id="path8827"
           sodipodi:sides="5"
           sodipodi:cx="106.33333"
           sodipodi:cy="148"
           sodipodi:r1="6.1463628"
           sodipodi:r2="2.810354"
           sodipodi:arg1="-2.9229237"
           sodipodi:arg2="-2.2946052"
           inkscape:flatsided="false"
           inkscape:rounded="0"
           inkscape:randomized="0"
           d="m 100.33333,146.66667 4.13886,-0.77244 1.27511,-4.01259 2.01361,3.69759 4.21023,-0.0273 -2.89438,3.05767 1.32696,3.99575 -3.80244,-1.80785 -3.39013,2.49677 0.54435,-4.17499 -3.42217,-2.45266 z"
           transform="matrix(1.0486689,0.08995095,-0.08593013,1.0977379,-61.263355,-76.410922)" />
        <path
           sodipodi:type="star"
           style="fill:#ffffff;fill-opacity:1;fill-rule:evenodd;stroke:none"
           id="path8829"
           sodipodi:sides="5"
           sodipodi:cx="106.33333"
           sodipodi:cy="148"
           sodipodi:r1="6.1463628"
           sodipodi:r2="2.810354"
           sodipodi:arg1="-2.9229237"
           sodipodi:arg2="-2.2946052"
           inkscape:flatsided="false"
           inkscape:rounded="0"
           inkscape:randomized="0"
           d="m 100.33333,146.66667 4.13886,-0.77244 1.27511,-4.01259 2.01361,3.69759 4.21023,-0.0273 -2.89438,3.05767 1.32696,3.99575 -3.80244,-1.80785 -3.39013,2.49677 0.54435,-4.17499 -3.42217,-2.45266 z"
           transform="matrix(1.0486689,0.08995095,-0.08593013,1.0977379,-35.263355,-76.410922)" />
        <path
           sodipodi:type="star"
           style="fill:#ffffff;fill-opacity:1;fill-rule:evenodd;stroke:none"
           id="path8831"
           sodipodi:sides="5"
           sodipodi:cx="106.33333"
           sodipodi:cy="148"
           sodipodi:r1="6.1463628"
           sodipodi:r2="2.810354"
           sodipodi:arg1="-2.9229237"
           sodipodi:arg2="-2.2946052"
           inkscape:flatsided="false"
           inkscape:rounded="0"
           inkscape:randomized="0"
           d="m 100.33333,146.66667 4.13886,-0.77244 1.27511,-4.01259 2.01361,3.69759 4.21023,-0.0273 -2.89438,3.05767 1.32696,3.99575 -3.80244,-1.80785 -3.39013,2.49677 0.54435,-4.17499 -3.42217,-2.45266 z"
           transform="matrix(1.0486689,0.08995095,-0.08593013,1.0977379,-10.263355,-76.410922)" />
        <path
           sodipodi:type="star"
           style="fill:#ffffff;fill-opacity:1;fill-rule:evenodd;stroke:none"
           id="path8833"
           sodipodi:sides="5"
           sodipodi:cx="106.33333"
           sodipodi:cy="148"
           sodipodi:r1="6.1463628"
           sodipodi:r2="2.810354"
           sodipodi:arg1="-2.9229237"
           sodipodi:arg2="-2.2946052"
           inkscape:flatsided="false"
           inkscape:rounded="0"
           inkscape:randomized="0"
           d="m 100.33333,146.66667 4.13886,-0.77244 1.27511,-4.01259 2.01361,3.69759 4.21023,-0.0273 -2.89438,3.05767 1.32696,3.99575 -3.80244,-1.80785 -3.39013,2.49677 0.54435,-4.17499 -3.42217,-2.45266 z"
           transform="matrix(1.0486689,0.08995095,-0.08593013,1.0977379,14.736645,-76.410922)" />
        <path
           sodipodi:type="star"
           style="fill:#ffffff;fill-opacity:1;fill-rule:evenodd;stroke:none"
           id="path8835"
           sodipodi:sides="5"
           sodipodi:cx="106.33333"
           sodipodi:cy="148"
           sodipodi:r1="6.1463628"
           sodipodi:r2="2.810354"
           sodipodi:arg1="-2.9229237"
           sodipodi:arg2="-2.2946052"
           inkscape:flatsided="false"
           inkscape:rounded="0"
           inkscape:randomized="0"
           d="m 100.33333,146.66667 4.13886,-0.77244 1.27511,-4.01259 2.01361,3.69759 4.21023,-0.0273 -2.89438,3.05767 1.32696,3.99575 -3.80244,-1.80785 -3.39013,2.49677 0.54435,-4.17499 -3.42217,-2.45266 z"
           transform="matrix(1.0486689,0.08995095,-0.08593013,1.0977379,40.736644,-76.410922)" />
        <path
           sodipodi:type="star"
           style="fill:#ffffff;fill-opacity:1;fill-rule:evenodd;stroke:none"
           id="path8837"
           sodipodi:sides="5"
           sodipodi:cx="106.33333"
           sodipodi:cy="148"
           sodipodi:r1="6.1463628"
           sodipodi:r2="2.810354"
           sodipodi:arg1="-2.9229237"
           sodipodi:arg2="-2.2946052"
           inkscape:flatsided="false"
           inkscape:rounded="0"
           inkscape:randomized="0"
           d="m 100.33333,146.66667 4.13886,-0.77244 1.27511,-4.01259 2.01361,3.69759 4.21023,-0.0273 -2.89438,3.05767 1.32696,3.99575 -3.80244,-1.80785 -3.39013,2.49677 0.54435,-4.17499 -3.42217,-2.45266 z"
           transform="matrix(1.0486689,0.08995095,-0.08593013,1.0977379,-73.263353,-86.410922)" />
        <path
           sodipodi:type="star"
           style="fill:#ffffff;fill-opacity:1;fill-rule:evenodd;stroke:none"
           id="path8839"
           sodipodi:sides="5"
           sodipodi:cx="106.33333"
           sodipodi:cy="148"
           sodipodi:r1="6.1463628"
           sodipodi:r2="2.810354"
           sodipodi:arg1="-2.9229237"
           sodipodi:arg2="-2.2946052"
           inkscape:flatsided="false"
           inkscape:rounded="0"
           inkscape:randomized="0"
           d="m 100.33333,146.66667 4.13886,-0.77244 1.27511,-4.01259 2.01361,3.69759 4.21023,-0.0273 -2.89438,3.05767 1.32696,3.99575 -3.80244,-1.80785 -3.39013,2.49677 0.54435,-4.17499 -3.42217,-2.45266 z"
           transform="matrix(1.0486689,0.08995095,-0.08593013,1.0977379,-86.263353,-97.410922)" />
        <path
           sodipodi:type="star"
           style="fill:#ffffff;fill-opacity:1;fill-rule:evenodd;stroke:none"
           id="path8841"
           sodipodi:sides="5"
           sodipodi:cx="106.33333"
           sodipodi:cy="148"
           sodipodi:r1="6.1463628"
           sodipodi:r2="2.810354"
           sodipodi:arg1="-2.9229237"
           sodipodi:arg2="-2.2946052"
           inkscape:flatsided="false"
           inkscape:rounded="0"
           inkscape:randomized="0"
           d="m 100.33333,146.66667 4.13886,-0.77244 1.27511,-4.01259 2.01361,3.69759 4.21023,-0.0273 -2.89438,3.05767 1.32696,3.99575 -3.80244,-1.80785 -3.39013,2.49677 0.54435,-4.17499 -3.42217,-2.45266 z"
           transform="matrix(1.0486689,0.08995095,-0.08593013,1.0977379,-73.263356,-107.41092)" />
        <path
           sodipodi:type="star"
           style="fill:#ffffff;fill-opacity:1;fill-rule:evenodd;stroke:none"
           id="path8843"
           sodipodi:sides="5"
           sodipodi:cx="106.33333"
           sodipodi:cy="148"
           sodipodi:r1="6.1463628"
           sodipodi:r2="2.810354"
           sodipodi:arg1="-2.9229237"
           sodipodi:arg2="-2.2946052"
           inkscape:flatsided="false"
           inkscape:rounded="0"
           inkscape:randomized="0"
           d="m 100.33333,146.66667 4.13886,-0.77244 1.27511,-4.01259 2.01361,3.69759 4.21023,-0.0273 -2.89438,3.05767 1.32696,3.99575 -3.80244,-1.80785 -3.39013,2.49677 0.54435,-4.17499 -3.42217,-2.45266 z"
           transform="matrix(1.0486689,0.08995095,-0.08593013,1.0977379,-86.263356,-118.41092)" />
        <path
           sodipodi:type="star"
           style="fill:#ffffff;fill-opacity:1;fill-rule:evenodd;stroke:none"
           id="path8845"
           sodipodi:sides="5"
           sodipodi:cx="106.33333"
           sodipodi:cy="148"
           sodipodi:r1="6.1463628"
           sodipodi:r2="2.810354"
           sodipodi:arg1="-2.9229237"
           sodipodi:arg2="-2.2946052"
           inkscape:flatsided="false"
           inkscape:rounded="0"
           inkscape:randomized="0"
           d="m 100.33333,146.66667 4.13886,-0.77244 1.27511,-4.01259 2.01361,3.69759 4.21023,-0.0273 -2.89438,3.05767 1.32696,3.99575 -3.80244,-1.80785 -3.39013,2.49677 0.54435,-4.17499 -3.42217,-2.45266 z"
           transform="matrix(1.0486689,0.08995095,-0.08593013,1.0977379,-73.263356,-128.41092)" />
        <path
           sodipodi:type="star"
           style="fill:#ffffff;fill-opacity:1;fill-rule:evenodd;stroke:none"
           id="path8847"
           sodipodi:sides="5"
           sodipodi:cx="106.33333"
           sodipodi:cy="148"
           sodipodi:r1="6.1463628"
           sodipodi:r2="2.810354"
           sodipodi:arg1="-2.9229237"
           sodipodi:arg2="-2.2946052"
           inkscape:flatsided="false"
           inkscape:rounded="0"
           inkscape:randomized="0"
           d="m 100.33333,146.66667 4.13886,-0.77244 1.27511,-4.01259 2.01361,3.69759 4.21023,-0.0273 -2.89438,3.05767 1.32696,3.99575 -3.80244,-1.80785 -3.39013,2.49677 0.54435,-4.17499 -3.42217,-2.45266 z"
           transform="matrix(1.0486689,0.08995095,-0.08593013,1.0977379,-86.263356,-139.41092)" />
        <path
           sodipodi:type="star"
           style="fill:#ffffff;fill-opacity:1;fill-rule:evenodd;stroke:none"
           id="path8849"
           sodipodi:sides="5"
           sodipodi:cx="106.33333"
           sodipodi:cy="148"
           sodipodi:r1="6.1463628"
           sodipodi:r2="2.810354"
           sodipodi:arg1="-2.9229237"
           sodipodi:arg2="-2.2946052"
           inkscape:flatsided="false"
           inkscape:rounded="0"
           inkscape:randomized="0"
           d="m 100.33333,146.66667 4.13886,-0.77244 1.27511,-4.01259 2.01361,3.69759 4.21023,-0.0273 -2.89438,3.05767 1.32696,3.99575 -3.80244,-1.80785 -3.39013,2.49677 0.54435,-4.17499 -3.42217,-2.45266 z"
           transform="matrix(1.0486689,0.08995095,-0.08593013,1.0977379,-73.263356,-149.41092)" />
        <path
           sodipodi:type="star"
           style="fill:#ffffff;fill-opacity:1;fill-rule:evenodd;stroke:none"
           id="path8851"
           sodipodi:sides="5"
           sodipodi:cx="106.33333"
           sodipodi:cy="148"
           sodipodi:r1="6.1463628"
           sodipodi:r2="2.810354"
           sodipodi:arg1="-2.9229237"
           sodipodi:arg2="-2.2946052"
           inkscape:flatsided="false"
           inkscape:rounded="0"
           inkscape:randomized="0"
           d="m 100.33333,146.66667 4.13886,-0.77244 1.27511,-4.01259 2.01361,3.69759 4.21023,-0.0273 -2.89438,3.05767 1.32696,3.99575 -3.80244,-1.80785 -3.39013,2.49677 0.54435,-4.17499 -3.42217,-2.45266 z"
           transform="matrix(1.0486689,0.08995095,-0.08593013,1.0977379,-86.263356,-160.41092)" />
        <path
           sodipodi:type="star"
           style="fill:#ffffff;fill-opacity:1;fill-rule:evenodd;stroke:none"
           id="path8853"
           sodipodi:sides="5"
           sodipodi:cx="106.33333"
           sodipodi:cy="148"
           sodipodi:r1="6.1463628"
           sodipodi:r2="2.810354"
           sodipodi:arg1="-2.9229237"
           sodipodi:arg2="-2.2946052"
           inkscape:flatsided="false"
           inkscape:rounded="0"
           inkscape:randomized="0"
           d="m 100.33333,146.66667 4.13886,-0.77244 1.27511,-4.01259 2.01361,3.69759 4.21023,-0.0273 -2.89438,3.05767 1.32696,3.99575 -3.80244,-1.80785 -3.39013,2.49677 0.54435,-4.17499 -3.42217,-2.45266 z"
           transform="matrix(1.0486689,0.08995095,-0.08593013,1.0977379,-48.263355,-86.410922)" />
        <path
           sodipodi:type="star"
           style="fill:#ffffff;fill-opacity:1;fill-rule:evenodd;stroke:none"
           id="path8855"
           sodipodi:sides="5"
           sodipodi:cx="106.33333"
           sodipodi:cy="148"
           sodipodi:r1="6.1463628"
           sodipodi:r2="2.810354"
           sodipodi:arg1="-2.9229237"
           sodipodi:arg2="-2.2946052"
           inkscape:flatsided="false"
           inkscape:rounded="0"
           inkscape:randomized="0"
           d="m 100.33333,146.66667 4.13886,-0.77244 1.27511,-4.01259 2.01361,3.69759 4.21023,-0.0273 -2.89438,3.05767 1.32696,3.99575 -3.80244,-1.80785 -3.39013,2.49677 0.54435,-4.17499 -3.42217,-2.45266 z"
           transform="matrix(1.0486689,0.08995095,-0.08593013,1.0977379,-61.263355,-97.410922)" />
        <path
           sodipodi:type="star"
           style="fill:#ffffff;fill-opacity:1;fill-rule:evenodd;stroke:none"
           id="path8857"
           sodipodi:sides="5"
           sodipodi:cx="106.33333"
           sodipodi:cy="148"
           sodipodi:r1="6.1463628"
           sodipodi:r2="2.810354"
           sodipodi:arg1="-2.9229237"
           sodipodi:arg2="-2.2946052"
           inkscape:flatsided="false"
           inkscape:rounded="0"
           inkscape:randomized="0"
           d="m 100.33333,146.66667 4.13886,-0.77244 1.27511,-4.01259 2.01361,3.69759 4.21023,-0.0273 -2.89438,3.05767 1.32696,3.99575 -3.80244,-1.80785 -3.39013,2.49677 0.54435,-4.17499 -3.42217,-2.45266 z"
           transform="matrix(1.0486689,0.08995095,-0.08593013,1.0977379,-48.263355,-107.41092)" />
        <path
           sodipodi:type="star"
           style="fill:#ffffff;fill-opacity:1;fill-rule:evenodd;stroke:none"
           id="path8859"
           sodipodi:sides="5"
           sodipodi:cx="106.33333"
           sodipodi:cy="148"
           sodipodi:r1="6.1463628"
           sodipodi:r2="2.810354"
           sodipodi:arg1="-2.9229237"
           sodipodi:arg2="-2.2946052"
           inkscape:flatsided="false"
           inkscape:rounded="0"
           inkscape:randomized="0"
           d="m 100.33333,146.66667 4.13886,-0.77244 1.27511,-4.01259 2.01361,3.69759 4.21023,-0.0273 -2.89438,3.05767 1.32696,3.99575 -3.80244,-1.80785 -3.39013,2.49677 0.54435,-4.17499 -3.42217,-2.45266 z"
           transform="matrix(1.0486689,0.08995095,-0.08593013,1.0977379,-61.263355,-118.41092)" />
        <path
           sodipodi:type="star"
           style="fill:#ffffff;fill-opacity:1;fill-rule:evenodd;stroke:none"
           id="path8861"
           sodipodi:sides="5"
           sodipodi:cx="106.33333"
           sodipodi:cy="148"
           sodipodi:r1="6.1463628"
           sodipodi:r2="2.810354"
           sodipodi:arg1="-2.9229237"
           sodipodi:arg2="-2.2946052"
           inkscape:flatsided="false"
           inkscape:rounded="0"
           inkscape:randomized="0"
           d="m 100.33333,146.66667 4.13886,-0.77244 1.27511,-4.01259 2.01361,3.69759 4.21023,-0.0273 -2.89438,3.05767 1.32696,3.99575 -3.80244,-1.80785 -3.39013,2.49677 0.54435,-4.17499 -3.42217,-2.45266 z"
           transform="matrix(1.0486689,0.08995095,-0.08593013,1.0977379,-48.263355,-128.41092)" />
        <path
           sodipodi:type="star"
           style="fill:#ffffff;fill-opacity:1;fill-rule:evenodd;stroke:none"
           id="path8863"
           sodipodi:sides="5"
           sodipodi:cx="106.33333"
           sodipodi:cy="148"
           sodipodi:r1="6.1463628"
           sodipodi:r2="2.810354"
           sodipodi:arg1="-2.9229237"
           sodipodi:arg2="-2.2946052"
           inkscape:flatsided="false"
           inkscape:rounded="0"
           inkscape:randomized="0"
           d="m 100.33333,146.66667 4.13886,-0.77244 1.27511,-4.01259 2.01361,3.69759 4.21023,-0.0273 -2.89438,3.05767 1.32696,3.99575 -3.80244,-1.80785 -3.39013,2.49677 0.54435,-4.17499 -3.42217,-2.45266 z"
           transform="matrix(1.0486689,0.08995095,-0.08593013,1.0977379,-61.263355,-139.41092)" />
        <path
           sodipodi:type="star"
           style="fill:#ffffff;fill-opacity:1;fill-rule:evenodd;stroke:none"
           id="path8865"
           sodipodi:sides="5"
           sodipodi:cx="106.33333"
           sodipodi:cy="148"
           sodipodi:r1="6.1463628"
           sodipodi:r2="2.810354"
           sodipodi:arg1="-2.9229237"
           sodipodi:arg2="-2.2946052"
           inkscape:flatsided="false"
           inkscape:rounded="0"
           inkscape:randomized="0"
           d="m 100.33333,146.66667 4.13886,-0.77244 1.27511,-4.01259 2.01361,3.69759 4.21023,-0.0273 -2.89438,3.05767 1.32696,3.99575 -3.80244,-1.80785 -3.39013,2.49677 0.54435,-4.17499 -3.42217,-2.45266 z"
           transform="matrix(1.0486689,0.08995095,-0.08593013,1.0977379,-48.263355,-149.41092)" />
        <path
           sodipodi:type="star"
           style="fill:#ffffff;fill-opacity:1;fill-rule:evenodd;stroke:none"
           id="path8867"
           sodipodi:sides="5"
           sodipodi:cx="106.33333"
           sodipodi:cy="148"
           sodipodi:r1="6.1463628"
           sodipodi:r2="2.810354"
           sodipodi:arg1="-2.9229237"
           sodipodi:arg2="-2.2946052"
           inkscape:flatsided="false"
           inkscape:rounded="0"
           inkscape:randomized="0"
           d="m 100.33333,146.66667 4.13886,-0.77244 1.27511,-4.01259 2.01361,3.69759 4.21023,-0.0273 -2.89438,3.05767 1.32696,3.99575 -3.80244,-1.80785 -3.39013,2.49677 0.54435,-4.17499 -3.42217,-2.45266 z"
           transform="matrix(1.0486689,0.08995095,-0.08593013,1.0977379,-61.263356,-160.41092)" />
        <path
           sodipodi:type="star"
           style="fill:#ffffff;fill-opacity:1;fill-rule:evenodd;stroke:none"
           id="path8869"
           sodipodi:sides="5"
           sodipodi:cx="106.33333"
           sodipodi:cy="148"
           sodipodi:r1="6.1463628"
           sodipodi:r2="2.810354"
           sodipodi:arg1="-2.9229237"
           sodipodi:arg2="-2.2946052"
           inkscape:flatsided="false"
           inkscape:rounded="0"
           inkscape:randomized="0"
           d="m 100.33333,146.66667 4.13886,-0.77244 1.27511,-4.01259 2.01361,3.69759 4.21023,-0.0273 -2.89438,3.05767 1.32696,3.99575 -3.80244,-1.80785 -3.39013,2.49677 0.54435,-4.17499 -3.42217,-2.45266 z"
           transform="matrix(1.0486689,0.08995095,-0.08593013,1.0977379,-23.263355,-86.410922)" />
        <path
           sodipodi:type="star"
           style="fill:#ffffff;fill-opacity:1;fill-rule:evenodd;stroke:none"
           id="path8871"
           sodipodi:sides="5"
           sodipodi:cx="106.33333"
           sodipodi:cy="148"
           sodipodi:r1="6.1463628"
           sodipodi:r2="2.810354"
           sodipodi:arg1="-2.9229237"
           sodipodi:arg2="-2.2946052"
           inkscape:flatsided="false"
           inkscape:rounded="0"
           inkscape:randomized="0"
           d="m 100.33333,146.66667 4.13886,-0.77244 1.27511,-4.01259 2.01361,3.69759 4.21023,-0.0273 -2.89438,3.05767 1.32696,3.99575 -3.80244,-1.80785 -3.39013,2.49677 0.54435,-4.17499 -3.42217,-2.45266 z"
           transform="matrix(1.0486689,0.08995095,-0.08593013,1.0977379,-35.263355,-97.410922)" />
        <path
           sodipodi:type="star"
           style="fill:#ffffff;fill-opacity:1;fill-rule:evenodd;stroke:none"
           id="path8873"
           sodipodi:sides="5"
           sodipodi:cx="106.33333"
           sodipodi:cy="148"
           sodipodi:r1="6.1463628"
           sodipodi:r2="2.810354"
           sodipodi:arg1="-2.9229237"
           sodipodi:arg2="-2.2946052"
           inkscape:flatsided="false"
           inkscape:rounded="0"
           inkscape:randomized="0"
           d="m 100.33333,146.66667 4.13886,-0.77244 1.27511,-4.01259 2.01361,3.69759 4.21023,-0.0273 -2.89438,3.05767 1.32696,3.99575 -3.80244,-1.80785 -3.39013,2.49677 0.54435,-4.17499 -3.42217,-2.45266 z"
           transform="matrix(1.0486689,0.08995095,-0.08593013,1.0977379,14.736647,-97.410922)" />
        <path
           sodipodi:type="star"
           style="fill:#ffffff;fill-opacity:1;fill-rule:evenodd;stroke:none"
           id="path8875"
           sodipodi:sides="5"
           sodipodi:cx="106.33333"
           sodipodi:cy="148"
           sodipodi:r1="6.1463628"
           sodipodi:r2="2.810354"
           sodipodi:arg1="-2.9229237"
           sodipodi:arg2="-2.2946052"
           inkscape:flatsided="false"
           inkscape:rounded="0"
           inkscape:randomized="0"
           d="m 100.33333,146.66667 4.13886,-0.77244 1.27511,-4.01259 2.01361,3.69759 4.21023,-0.0273 -2.89438,3.05767 1.32696,3.99575 -3.80244,-1.80785 -3.39013,2.49677 0.54435,-4.17499 -3.42217,-2.45266 z"
           transform="matrix(1.0486689,0.08995095,-0.08593013,1.0977379,-10.263355,-97.410922)" />
        <path
           sodipodi:type="star"
           style="fill:#ffffff;fill-opacity:1;fill-rule:evenodd;stroke:none"
           id="path8877"
           sodipodi:sides="5"
           sodipodi:cx="106.33333"
           sodipodi:cy="148"
           sodipodi:r1="6.1463628"
           sodipodi:r2="2.810354"
           sodipodi:arg1="-2.9229237"
           sodipodi:arg2="-2.2946052"
           inkscape:flatsided="false"
           inkscape:rounded="0"
           inkscape:randomized="0"
           d="m 100.33333,146.66667 4.13886,-0.77244 1.27511,-4.01259 2.01361,3.69759 4.21023,-0.0273 -2.89438,3.05767 1.32696,3.99575 -3.80244,-1.80785 -3.39013,2.49677 0.54435,-4.17499 -3.42217,-2.45266 z"
           transform="matrix(1.0486689,0.08995095,-0.08593013,1.0977379,27.736645,-86.410922)" />
        <path
           sodipodi:type="star"
           style="fill:#ffffff;fill-opacity:1;fill-rule:evenodd;stroke:none"
           id="path8879"
           sodipodi:sides="5"
           sodipodi:cx="106.33333"
           sodipodi:cy="148"
           sodipodi:r1="6.1463628"
           sodipodi:r2="2.810354"
           sodipodi:arg1="-2.9229237"
           sodipodi:arg2="-2.2946052"
           inkscape:flatsided="false"
           inkscape:rounded="0"
           inkscape:randomized="0"
           d="m 100.33333,146.66667 4.13886,-0.77244 1.27511,-4.01259 2.01361,3.69759 4.21023,-0.0273 -2.89438,3.05767 1.32696,3.99575 -3.80244,-1.80785 -3.39013,2.49677 0.54435,-4.17499 -3.42217,-2.45266 z"
           transform="matrix(1.0486689,0.08995095,-0.08593013,1.0977379,2.7366446,-86.410922)" />
        <path
           sodipodi:type="star"
           style="fill:#ffffff;fill-opacity:1;fill-rule:evenodd;stroke:none"
           id="path8881"
           sodipodi:sides="5"
           sodipodi:cx="106.33333"
           sodipodi:cy="148"
           sodipodi:r1="6.1463628"
           sodipodi:r2="2.810354"
           sodipodi:arg1="-2.9229237"
           sodipodi:arg2="-2.2946052"
           inkscape:flatsided="false"
           inkscape:rounded="0"
           inkscape:randomized="0"
           d="m 100.33333,146.66667 4.13886,-0.77244 1.27511,-4.01259 2.01361,3.69759 4.21023,-0.0273 -2.89438,3.05767 1.32696,3.99575 -3.80244,-1.80785 -3.39013,2.49677 0.54435,-4.17499 -3.42217,-2.45266 z"
           transform="matrix(1.0486689,0.08995095,-0.08593013,1.0977379,-35.263355,-160.41092)" />
        <path
           sodipodi:type="star"
           style="fill:#ffffff;fill-opacity:1;fill-rule:evenodd;stroke:none"
           id="path8883"
           sodipodi:sides="5"
           sodipodi:cx="106.33333"
           sodipodi:cy="148"
           sodipodi:r1="6.1463628"
           sodipodi:r2="2.810354"
           sodipodi:arg1="-2.9229237"
           sodipodi:arg2="-2.2946052"
           inkscape:flatsided="false"
           inkscape:rounded="0"
           inkscape:randomized="0"
           d="m 100.33333,146.66667 4.13886,-0.77244 1.27511,-4.01259 2.01361,3.69759 4.21023,-0.0273 -2.89438,3.05767 1.32696,3.99575 -3.80244,-1.80785 -3.39013,2.49677 0.54435,-4.17499 -3.42217,-2.45266 z"
           transform="matrix(1.0486689,0.08995095,-0.08593013,1.0977379,-23.263355,-149.41092)" />
        <path
           sodipodi:type="star"
           style="fill:#ffffff;fill-opacity:1;fill-rule:evenodd;stroke:none"
           id="path8885"
           sodipodi:sides="5"
           sodipodi:cx="106.33333"
           sodipodi:cy="148"
           sodipodi:r1="6.1463628"
           sodipodi:r2="2.810354"
           sodipodi:arg1="-2.9229237"
           sodipodi:arg2="-2.2946052"
           inkscape:flatsided="false"
           inkscape:rounded="0"
           inkscape:randomized="0"
           d="m 100.33333,146.66667 4.13886,-0.77244 1.27511,-4.01259 2.01361,3.69759 4.21023,-0.0273 -2.89438,3.05767 1.32696,3.99575 -3.80244,-1.80785 -3.39013,2.49677 0.54435,-4.17499 -3.42217,-2.45266 z"
           transform="matrix(1.0486689,0.08995095,-0.08593013,1.0977379,-35.263355,-139.41092)" />
        <path
           sodipodi:type="star"
           style="fill:#ffffff;fill-opacity:1;fill-rule:evenodd;stroke:none"
           id="path8887"
           sodipodi:sides="5"
           sodipodi:cx="106.33333"
           sodipodi:cy="148"
           sodipodi:r1="6.1463628"
           sodipodi:r2="2.810354"
           sodipodi:arg1="-2.9229237"
           sodipodi:arg2="-2.2946052"
           inkscape:flatsided="false"
           inkscape:rounded="0"
           inkscape:randomized="0"
           d="m 100.33333,146.66667 4.13886,-0.77244 1.27511,-4.01259 2.01361,3.69759 4.21023,-0.0273 -2.89438,3.05767 1.32696,3.99575 -3.80244,-1.80785 -3.39013,2.49677 0.54435,-4.17499 -3.42217,-2.45266 z"
           transform="matrix(1.0486689,0.08995095,-0.08593013,1.0977379,-23.263355,-128.41092)" />
        <path
           sodipodi:type="star"
           style="fill:#ffffff;fill-opacity:1;fill-rule:evenodd;stroke:none"
           id="path8889"
           sodipodi:sides="5"
           sodipodi:cx="106.33333"
           sodipodi:cy="148"
           sodipodi:r1="6.1463628"
           sodipodi:r2="2.810354"
           sodipodi:arg1="-2.9229237"
           sodipodi:arg2="-2.2946052"
           inkscape:flatsided="false"
           inkscape:rounded="0"
           inkscape:randomized="0"
           d="m 100.33333,146.66667 4.13886,-0.77244 1.27511,-4.01259 2.01361,3.69759 4.21023,-0.0273 -2.89438,3.05767 1.32696,3.99575 -3.80244,-1.80785 -3.39013,2.49677 0.54435,-4.17499 -3.42217,-2.45266 z"
           transform="matrix(1.0486689,0.08995095,-0.08593013,1.0977379,-35.263355,-118.41092)" />
        <path
           sodipodi:type="star"
           style="fill:#ffffff;fill-opacity:1;fill-rule:evenodd;stroke:none"
           id="path8891"
           sodipodi:sides="5"
           sodipodi:cx="106.33333"
           sodipodi:cy="148"
           sodipodi:r1="6.1463628"
           sodipodi:r2="2.810354"
           sodipodi:arg1="-2.9229237"
           sodipodi:arg2="-2.2946052"
           inkscape:flatsided="false"
           inkscape:rounded="0"
           inkscape:randomized="0"
           d="m 100.33333,146.66667 4.13886,-0.77244 1.27511,-4.01259 2.01361,3.69759 4.21023,-0.0273 -2.89438,3.05767 1.32696,3.99575 -3.80244,-1.80785 -3.39013,2.49677 0.54435,-4.17499 -3.42217,-2.45266 z"
           transform="matrix(1.0486689,0.08995095,-0.08593013,1.0977379,-23.263355,-107.41092)" />
        <path
           sodipodi:type="star"
           style="fill:#ffffff;fill-opacity:1;fill-rule:evenodd;stroke:none"
           id="path8893"
           sodipodi:sides="5"
           sodipodi:cx="106.33333"
           sodipodi:cy="148"
           sodipodi:r1="6.1463628"
           sodipodi:r2="2.810354"
           sodipodi:arg1="-2.9229237"
           sodipodi:arg2="-2.2946052"
           inkscape:flatsided="false"
           inkscape:rounded="0"
           inkscape:randomized="0"
           d="m 100.33333,146.66667 4.13886,-0.77244 1.27511,-4.01259 2.01361,3.69759 4.21023,-0.0273 -2.89438,3.05767 1.32696,3.99575 -3.80244,-1.80785 -3.39013,2.49677 0.54435,-4.17499 -3.42217,-2.45266 z"
           transform="matrix(1.0486689,0.08995095,-0.08593013,1.0977379,40.736647,-97.410922)" />
        <path
           sodipodi:type="star"
           style="fill:#ffffff;fill-opacity:1;fill-rule:evenodd;stroke:none"
           id="path8895"
           sodipodi:sides="5"
           sodipodi:cx="106.33333"
           sodipodi:cy="148"
           sodipodi:r1="6.1463628"
           sodipodi:r2="2.810354"
           sodipodi:arg1="-2.9229237"
           sodipodi:arg2="-2.2946052"
           inkscape:flatsided="false"
           inkscape:rounded="0"
           inkscape:randomized="0"
           d="m 100.33333,146.66667 4.13886,-0.77244 1.27511,-4.01259 2.01361,3.69759 4.21023,-0.0273 -2.89438,3.05767 1.32696,3.99575 -3.80244,-1.80785 -3.39013,2.49677 0.54435,-4.17499 -3.42217,-2.45266 z"
           transform="matrix(1.0486689,0.08995095,-0.08593013,1.0977379,-10.263354,-118.41092)" />
        <path
           sodipodi:type="star"
           style="fill:#ffffff;fill-opacity:1;fill-rule:evenodd;stroke:none"
           id="path8897"
           sodipodi:sides="5"
           sodipodi:cx="106.33333"
           sodipodi:cy="148"
           sodipodi:r1="6.1463628"
           sodipodi:r2="2.810354"
           sodipodi:arg1="-2.9229237"
           sodipodi:arg2="-2.2946052"
           inkscape:flatsided="false"
           inkscape:rounded="0"
           inkscape:randomized="0"
           d="m 100.33333,146.66667 4.13886,-0.77244 1.27511,-4.01259 2.01361,3.69759 4.21023,-0.0273 -2.89438,3.05767 1.32696,3.99575 -3.80244,-1.80785 -3.39013,2.49677 0.54435,-4.17499 -3.42217,-2.45266 z"
           transform="matrix(1.0486689,0.08995095,-0.08593013,1.0977379,-10.263355,-160.41092)" />
        <path
           sodipodi:type="star"
           style="fill:#ffffff;fill-opacity:1;fill-rule:evenodd;stroke:none"
           id="path8899"
           sodipodi:sides="5"
           sodipodi:cx="106.33333"
           sodipodi:cy="148"
           sodipodi:r1="6.1463628"
           sodipodi:r2="2.810354"
           sodipodi:arg1="-2.9229237"
           sodipodi:arg2="-2.2946052"
           inkscape:flatsided="false"
           inkscape:rounded="0"
           inkscape:randomized="0"
           d="m 100.33333,146.66667 4.13886,-0.77244 1.27511,-4.01259 2.01361,3.69759 4.21023,-0.0273 -2.89438,3.05767 1.32696,3.99575 -3.80244,-1.80785 -3.39013,2.49677 0.54435,-4.17499 -3.42217,-2.45266 z"
           transform="matrix(1.0486689,0.08995095,-0.08593013,1.0977379,-10.263356,-139.41092)" />
        <path
           sodipodi:type="star"
           style="fill:#ffffff;fill-opacity:1;fill-rule:evenodd;stroke:none"
           id="path8901"
           sodipodi:sides="5"
           sodipodi:cx="106.33333"
           sodipodi:cy="148"
           sodipodi:r1="6.1463628"
           sodipodi:r2="2.810354"
           sodipodi:arg1="-2.9229237"
           sodipodi:arg2="-2.2946052"
           inkscape:flatsided="false"
           inkscape:rounded="0"
           inkscape:randomized="0"
           d="m 100.33333,146.66667 4.13886,-0.77244 1.27511,-4.01259 2.01361,3.69759 4.21023,-0.0273 -2.89438,3.05767 1.32696,3.99575 -3.80244,-1.80785 -3.39013,2.49677 0.54435,-4.17499 -3.42217,-2.45266 z"
           transform="matrix(1.0486689,0.08995095,-0.08593013,1.0977379,27.736647,-107.41092)" />
        <path
           sodipodi:type="star"
           style="fill:#ffffff;fill-opacity:1;fill-rule:evenodd;stroke:none"
           id="path8903"
           sodipodi:sides="5"
           sodipodi:cx="106.33333"
           sodipodi:cy="148"
           sodipodi:r1="6.1463628"
           sodipodi:r2="2.810354"
           sodipodi:arg1="-2.9229237"
           sodipodi:arg2="-2.2946052"
           inkscape:flatsided="false"
           inkscape:rounded="0"
           inkscape:randomized="0"
           d="m 100.33333,146.66667 4.13886,-0.77244 1.27511,-4.01259 2.01361,3.69759 4.21023,-0.0273 -2.89438,3.05767 1.32696,3.99575 -3.80244,-1.80785 -3.39013,2.49677 0.54435,-4.17499 -3.42217,-2.45266 z"
           transform="matrix(1.0486689,0.08995095,-0.08593013,1.0977379,2.7366468,-107.41092)" />
        <path
           sodipodi:type="star"
           style="fill:#ffffff;fill-opacity:1;fill-rule:evenodd;stroke:none"
           id="path8905"
           sodipodi:sides="5"
           sodipodi:cx="106.33333"
           sodipodi:cy="148"
           sodipodi:r1="6.1463628"
           sodipodi:r2="2.810354"
           sodipodi:arg1="-2.9229237"
           sodipodi:arg2="-2.2946052"
           inkscape:flatsided="false"
           inkscape:rounded="0"
           inkscape:randomized="0"
           d="m 100.33333,146.66667 4.13886,-0.77244 1.27511,-4.01259 2.01361,3.69759 4.21023,-0.0273 -2.89438,3.05767 1.32696,3.99575 -3.80244,-1.80785 -3.39013,2.49677 0.54435,-4.17499 -3.42217,-2.45266 z"
           transform="matrix(1.0486689,0.08995095,-0.08593013,1.0977379,2.7366443,-149.41092)" />
        <path
           sodipodi:type="star"
           style="fill:#ffffff;fill-opacity:1;fill-rule:evenodd;stroke:none"
           id="path8907"
           sodipodi:sides="5"
           sodipodi:cx="106.33333"
           sodipodi:cy="148"
           sodipodi:r1="6.1463628"
           sodipodi:r2="2.810354"
           sodipodi:arg1="-2.9229237"
           sodipodi:arg2="-2.2946052"
           inkscape:flatsided="false"
           inkscape:rounded="0"
           inkscape:randomized="0"
           d="m 100.33333,146.66667 4.13886,-0.77244 1.27511,-4.01259 2.01361,3.69759 4.21023,-0.0273 -2.89438,3.05767 1.32696,3.99575 -3.80244,-1.80785 -3.39013,2.49677 0.54435,-4.17499 -3.42217,-2.45266 z"
           transform="matrix(1.0486689,0.08995095,-0.08593013,1.0977379,2.7366465,-128.41092)" />
        <path
           sodipodi:type="star"
           style="fill:#ffffff;fill-opacity:1;fill-rule:evenodd;stroke:none"
           id="path8909"
           sodipodi:sides="5"
           sodipodi:cx="106.33333"
           sodipodi:cy="148"
           sodipodi:r1="6.1463628"
           sodipodi:r2="2.810354"
           sodipodi:arg1="-2.9229237"
           sodipodi:arg2="-2.2946052"
           inkscape:flatsided="false"
           inkscape:rounded="0"
           inkscape:randomized="0"
           d="m 100.33333,146.66667 4.13886,-0.77244 1.27511,-4.01259 2.01361,3.69759 4.21023,-0.0273 -2.89438,3.05767 1.32696,3.99575 -3.80244,-1.80785 -3.39013,2.49677 0.54435,-4.17499 -3.42217,-2.45266 z"
           transform="matrix(1.0486689,0.08995095,-0.08593013,1.0977379,40.736647,-118.41092)" />
        <path
           sodipodi:type="star"
           style="fill:#ffffff;fill-opacity:1;fill-rule:evenodd;stroke:none"
           id="path8911"
           sodipodi:sides="5"
           sodipodi:cx="106.33333"
           sodipodi:cy="148"
           sodipodi:r1="6.1463628"
           sodipodi:r2="2.810354"
           sodipodi:arg1="-2.9229237"
           sodipodi:arg2="-2.2946052"
           inkscape:flatsided="false"
           inkscape:rounded="0"
           inkscape:randomized="0"
           d="m 100.33333,146.66667 4.13886,-0.77244 1.27511,-4.01259 2.01361,3.69759 4.21023,-0.0273 -2.89438,3.05767 1.32696,3.99575 -3.80244,-1.80785 -3.39013,2.49677 0.54435,-4.17499 -3.42217,-2.45266 z"
           transform="matrix(1.0486689,0.08995095,-0.08593013,1.0977379,14.736644,-118.41092)" />
        <path
           sodipodi:type="star"
           style="fill:#ffffff;fill-opacity:1;fill-rule:evenodd;stroke:none"
           id="path8913"
           sodipodi:sides="5"
           sodipodi:cx="106.33333"
           sodipodi:cy="148"
           sodipodi:r1="6.1463628"
           sodipodi:r2="2.810354"
           sodipodi:arg1="-2.9229237"
           sodipodi:arg2="-2.2946052"
           inkscape:flatsided="false"
           inkscape:rounded="0"
           inkscape:randomized="0"
           d="m 100.33333,146.66667 4.13886,-0.77244 1.27511,-4.01259 2.01361,3.69759 4.21023,-0.0273 -2.89438,3.05767 1.32696,3.99575 -3.80244,-1.80785 -3.39013,2.49677 0.54435,-4.17499 -3.42217,-2.45266 z"
           transform="matrix(1.0486689,0.08995095,-0.08593013,1.0977379,14.736644,-160.41092)" />
        <path
           sodipodi:type="star"
           style="fill:#ffffff;fill-opacity:1;fill-rule:evenodd;stroke:none"
           id="path8915"
           sodipodi:sides="5"
           sodipodi:cx="106.33333"
           sodipodi:cy="148"
           sodipodi:r1="6.1463628"
           sodipodi:r2="2.810354"
           sodipodi:arg1="-2.9229237"
           sodipodi:arg2="-2.2946052"
           inkscape:flatsided="false"
           inkscape:rounded="0"
           inkscape:randomized="0"
           d="m 100.33333,146.66667 4.13886,-0.77244 1.27511,-4.01259 2.01361,3.69759 4.21023,-0.0273 -2.89438,3.05767 1.32696,3.99575 -3.80244,-1.80785 -3.39013,2.49677 0.54435,-4.17499 -3.42217,-2.45266 z"
           transform="matrix(1.0486689,0.08995095,-0.08593013,1.0977379,14.736644,-139.41092)" />
        <path
           sodipodi:type="star"
           style="fill:#ffffff;fill-opacity:1;fill-rule:evenodd;stroke:none"
           id="path8917"
           sodipodi:sides="5"
           sodipodi:cx="106.33333"
           sodipodi:cy="148"
           sodipodi:r1="6.1463628"
           sodipodi:r2="2.810354"
           sodipodi:arg1="-2.9229237"
           sodipodi:arg2="-2.2946052"
           inkscape:flatsided="false"
           inkscape:rounded="0"
           inkscape:randomized="0"
           d="m 100.33333,146.66667 4.13886,-0.77244 1.27511,-4.01259 2.01361,3.69759 4.21023,-0.0273 -2.89438,3.05767 1.32696,3.99575 -3.80244,-1.80785 -3.39013,2.49677 0.54435,-4.17499 -3.42217,-2.45266 z"
           transform="matrix(1.0486689,0.08995095,-0.08593013,1.0977379,40.736644,-160.41092)" />
        <path
           sodipodi:type="star"
           style="fill:#ffffff;fill-opacity:1;fill-rule:evenodd;stroke:none"
           id="path8919"
           sodipodi:sides="5"
           sodipodi:cx="106.33333"
           sodipodi:cy="148"
           sodipodi:r1="6.1463628"
           sodipodi:r2="2.810354"
           sodipodi:arg1="-2.9229237"
           sodipodi:arg2="-2.2946052"
           inkscape:flatsided="false"
           inkscape:rounded="0"
           inkscape:randomized="0"
           d="m 100.33333,146.66667 4.13886,-0.77244 1.27511,-4.01259 2.01361,3.69759 4.21023,-0.0273 -2.89438,3.05767 1.32696,3.99575 -3.80244,-1.80785 -3.39013,2.49677 0.54435,-4.17499 -3.42217,-2.45266 z"
           transform="matrix(1.0486689,0.08995095,-0.08593013,1.0977379,27.736644,-149.41092)" />
        <path
           sodipodi:type="star"
           style="fill:#ffffff;fill-opacity:1;fill-rule:evenodd;stroke:none"
           id="path8921"
           sodipodi:sides="5"
           sodipodi:cx="106.33333"
           sodipodi:cy="148"
           sodipodi:r1="6.1463628"
           sodipodi:r2="2.810354"
           sodipodi:arg1="-2.9229237"
           sodipodi:arg2="-2.2946052"
           inkscape:flatsided="false"
           inkscape:rounded="0"
           inkscape:randomized="0"
           d="m 100.33333,146.66667 4.13886,-0.77244 1.27511,-4.01259 2.01361,3.69759 4.21023,-0.0273 -2.89438,3.05767 1.32696,3.99575 -3.80244,-1.80785 -3.39013,2.49677 0.54435,-4.17499 -3.42217,-2.45266 z"
           transform="matrix(1.0486689,0.08995095,-0.08593013,1.0977379,40.736644,-139.41092)" />
        <path
           sodipodi:type="star"
           style="fill:#ffffff;fill-opacity:1;fill-rule:evenodd;stroke:none"
           id="path8923"
           sodipodi:sides="5"
           sodipodi:cx="106.33333"
           sodipodi:cy="148"
           sodipodi:r1="6.1463628"
           sodipodi:r2="2.810354"
           sodipodi:arg1="-2.9229237"
           sodipodi:arg2="-2.2946052"
           inkscape:flatsided="false"
           inkscape:rounded="0"
           inkscape:randomized="0"
           d="m 100.33333,146.66667 4.13886,-0.77244 1.27511,-4.01259 2.01361,3.69759 4.21023,-0.0273 -2.89438,3.05767 1.32696,3.99575 -3.80244,-1.80785 -3.39013,2.49677 0.54435,-4.17499 -3.42217,-2.45266 z"
           transform="matrix(1.0486689,0.08995095,-0.08593013,1.0977379,27.736644,-128.41092)" />
      </g>
    </g>
  </g>
</svg>
