<?xml version="1.0" encoding="UTF-8" standalone="no"?>
<!-- Created with Inkscape (http://www.inkscape.org/) -->
<svg
   xmlns:dc="http://purl.org/dc/elements/1.1/"
   xmlns:cc="http://web.resource.org/cc/"
   xmlns:rdf="http://www.w3.org/1999/02/22-rdf-syntax-ns#"
   xmlns:svg="http://www.w3.org/2000/svg"
   xmlns="http://www.w3.org/2000/svg"
   xmlns:sodipodi="http://sodipodi.sourceforge.net/DTD/sodipodi-0.dtd"
   xmlns:inkscape="http://www.inkscape.org/namespaces/inkscape"
   width="150.2587"
   height="150.2587"
   id="svg14350"
   sodipodi:version="0.32"
   inkscape:version="0.45.1"
   version="1.0"
   sodipodi:docbase="F:\Inkscape drawings"
   sodipodi:docname="TS_4svg.svg"
   inkscape:output_extension="org.inkscape.output.svg.inkscape">
  <defs
     id="defs3" />
  <sodipodi:namedview
     inkscape:document-units="mm"
     id="base"
     pagecolor="#ffffff"
     bordercolor="#666666"
     borderopacity="1.0"
     inkscape:pageopacity="0.0"
     inkscape:pageshadow="2"
     inkscape:zoom="0.35"
     inkscape:cx="350"
     inkscape:cy="520"
     inkscape:current-layer="layer1"
     inkscape:window-width="1280"
     inkscape:window-height="968"
     inkscape:window-x="-4"
     inkscape:window-y="-4" />
  <metadata
     id="metadata4">
    <rdf:RDF>
      <cc:Work
         rdf:about="">
        <dc:format>image/svg+xml</dc:format>
        <dc:type
           rdf:resource="http://purl.org/dc/dcmitype/StillImage" />
      </cc:Work>
    </rdf:RDF>
  </metadata>
  <g
     inkscape:label="Layer 1"
     inkscape:groupmode="layer"
     id="layer1"
     transform="translate(-274.87065,-457.23284)">
    <g
       id="g4510"
       transform="translate(-170.72842,436.94075)">
      <rect
         transform="matrix(0.7071068,0.7071068,-0.7071068,0.7071068,0,0)"
         ry="5.2659869"
         y="-354.0755"
         x="382.34567"
         height="106.67611"
         width="106.67611"
         id="rect3527"
         style="fill:#ffff00;fill-opacity:1;stroke:#000000;stroke-width:3.74880409;stroke-miterlimit:4;stroke-dasharray:none;stroke-opacity:1" />
      <path
         id="path4500"
         d="M 554.09313,127.4505 C 553.88993,127.40693 552.64305,127.12962 551.32227,126.83428 C 547.97488,126.08573 546.49653,125.81194 542.36319,125.17501 C 532.31754,123.62704 529.30916,122.99929 527.29387,122.03055 C 525.50684,121.17153 524.94385,120.63005 524.01293,118.87497 C 523.01784,116.99892 522.34406,114.98434 521.11478,110.20963 C 520.52624,107.92368 519.90809,105.67929 519.7411,105.2221 C 519.34487,104.13728 517.46556,100.28515 517.01722,99.638822 C 516.82518,99.361963 515.94488,98.746499 515.06101,98.271131 C 511.9153,96.579273 509.38959,94.945118 507.81992,93.586068 C 506.7839,92.689064 505.78797,91.709098 505.78797,91.586695 C 505.78797,91.515051 505.60093,91.249472 505.37234,90.996512 C 505.14374,90.743556 504.79046,90.221133 504.58726,89.835577 C 504.16499,89.034327 503.86697,89.027991 502.65282,89.794448 C 501.71376,90.387251 499.5522,91.537309 496.71818,92.951963 C 492.86192,94.876899 490.05165,95.887005 485.76342,96.889482 C 484.5026,97.184227 479.98208,97.135417 478.2682,96.808554 C 475.92178,96.36106 472.80286,95.360771 471.05261,94.494394 C 469.10497,93.530324 468.20612,92.509398 466.79411,89.657575 C 464.84719,85.725398 464.48906,83.991276 465.41709,82.989905 C 466.21765,82.126087 466.58067,82.331306 467.16651,83.978915 C 467.92743,86.118882 468.86696,87.648038 470.50021,89.404746 C 473.43256,92.558755 477.93603,93.729484 481.95865,92.383504 C 484.6053,91.497919 489.67404,88.666297 491.28718,87.17216 C 491.49038,86.983951 492.07226,86.515646 492.58024,86.131483 C 494.09635,84.984925 501.44511,78.081015 502.90705,76.429798 C 504.38743,74.757761 510.69527,69.626028 512.71509,68.450483 C 514.58356,67.36303 514.87924,67.226222 516.50192,66.698371 C 517.90561,66.241762 518.34623,66.186885 520.6582,66.180732 C 524.85825,66.16956 527.44058,67.06604 531.11809,69.811987 C 532.98481,71.205849 534.39698,72.609889 537.84242,76.497619 C 541.13661,80.214675 544.29607,83.404387 545.41113,84.138792 C 546.06376,84.568625 546.33378,84.625447 547.72406,84.625447 C 549.12526,84.625447 549.43143,84.559796 550.51261,84.027537 C 551.94452,83.322612 553.17192,82.396774 552.89853,82.227815 C 552.79307,82.162638 551.97964,81.734018 551.09091,81.275333 C 548.0049,79.682612 546.95916,78.709399 547.22763,77.679977 C 547.39684,77.031134 548.48122,76.405257 549.43618,76.405257 C 550.21442,76.405257 551.80377,77.052526 552.5887,77.689148 C 553.20259,78.187036 555.72973,80.356188 556.30039,80.875045 C 556.60177,81.149074 557.17591,81.428617 557.57624,81.496255 C 558.53965,81.659019 559.37899,82.020596 560.02815,82.552509 C 560.7647,83.156019 561.57071,83.625145 563.60637,84.635157 C 566.49716,86.06944 568.22446,87.386474 568.22446,88.156362 C 568.22446,88.669259 567.46716,89.146468 565.74014,89.721825 L 564.45652,90.14946 L 561.21442,89.73884 C 558.17745,89.354193 557.90218,89.346433 556.86398,89.61623 C 555.13405,90.065782 553.4648,91.307372 550.26446,94.524947 C 546.91636,97.891092 545.73635,98.824446 544.18493,99.333758 C 542.56218,99.866473 542.15481,100.28968 538.38844,105.35554 C 536.71707,107.60357 535.2924,108.92645 533.74472,109.66747 C 532.52029,110.25372 530.91034,110.58301 530.91034,110.24718 C 530.91034,110.13863 530.76487,110.00323 530.58708,109.94632 C 530.10093,109.7907 529.24783,108.31651 529.24783,107.63206 C 529.24783,106.97021 530.11398,105.98574 530.74515,105.93021 C 531.63757,105.85169 531.72884,105.88526 531.8332,106.33044 C 531.96953,106.91197 532.63547,107.03501 533.40148,106.6202 C 534.09076,106.24693 535.44421,104.24821 535.91529,102.90788 C 536.39295,101.54887 536.37374,100.19712 535.86386,99.289921 C 535.64195,98.895096 535.41336,98.571701 535.35587,98.571261 C 535.29838,98.570825 534.8392,98.19676 534.33547,97.740006 C 533.82466,97.276831 533.23702,96.909547 533.00679,96.909547 C 532.6423,96.909547 531.34315,97.538231 531.09507,97.834668 C 531.04427,97.895365 530.71176,98.121854 530.35617,98.337968 C 528.59106,99.41073 527.7993,101.12539 527.64652,104.20612 C 527.59072,105.33109 527.64102,106.98015 527.75922,107.90059 C 527.87663,108.81497 528.08014,110.64374 528.21147,111.9645 C 528.48007,114.66588 528.82702,115.58141 529.83556,116.25013 C 531.13419,117.11118 536.76915,119.1749 542.73264,120.97349 C 549.59065,123.04186 550.60592,123.37892 553.81604,124.6531 C 556.25224,125.62008 556.77162,125.94274 556.77162,126.48918 C 556.77162,127.05593 555.08164,127.66248 554.09313,127.4505 z M 539.96179,120.73886 C 539.80939,120.64038 539.56001,120.56436 539.40761,120.56995 C 539.22491,120.57665 539.25638,120.63419 539.49998,120.73886 C 540.0078,120.95708 540.29946,120.95708 539.96179,120.73886 z "
         style="fill:#020202" />
    </g>
  </g>
</svg>
